<?xml version="1.0" encoding="UTF-8"?>
<svg width="205px" height="80px" viewBox="0 0 205 80" version="1.1" xmlns="http://www.w3.org/2000/svg" xmlns:xlink="http://www.w3.org/1999/xlink">
    <!-- Generator: Sketch 43.2 (39069) - http://www.bohemiancoding.com/sketch -->
    <title>logo-tx/full-black</title>
    <desc>Created with Sketch.</desc>
    <defs></defs>
    <g id="Symbols" stroke="none" stroke-width="1" fill="none" fill-rule="evenodd">
        <g id="logo-tx/full-black">
            <path d="M100.282845,71.3220599 L100.282845,55.5885572 L105.914559,55.5885572 L105.914559,53.6251858 L92.4728261,53.6251858 L92.4728261,55.5885572 L98.0779758,55.5885572 L98.0779758,71.3220599 L100.282845,71.3220599 Z M121.693986,71.3220599 L119.090646,71.3220599 L114.601213,64.291068 L111.041545,64.291068 L111.041545,71.3220599 L108.836675,71.3220599 L108.836675,53.6251858 L115.956013,53.6251858 C119.196905,53.6251858 121.534598,55.6946853 121.534598,58.9581269 C121.534598,62.1419723 119.329728,63.8930873 116.912341,64.1053436 L121.693986,71.3220599 Z M115.690366,62.3542287 C117.788976,62.3542287 119.250034,60.9480303 119.250034,58.9581269 C119.250034,56.9416915 117.788976,55.5885572 115.690366,55.5885572 L111.041545,55.5885572 L111.041545,62.3542287 L115.690366,62.3542287 Z M140.18301,71.3220599 L137.659365,71.3220599 L136.092048,67.3687852 L127.272571,67.3687852 L125.705254,71.3220599 L123.181608,71.3220599 L130.32751,53.6251858 L133.063673,53.6251858 L140.18301,71.3220599 Z M135.454495,65.4319459 L131.682309,55.8804097 L127.936688,65.4319459 L135.454495,65.4319459 Z M150.888581,71.6404444 C154.023214,71.6404444 156.148389,70.1546499 157.636012,68.1116824 L155.776484,67.1034647 C154.767025,68.5892593 152.907497,69.6770731 150.888581,69.6770731 C147.010136,69.6770731 144.061455,66.678952 144.061455,62.4868889 C144.061455,58.2417617 147.010136,55.2967047 150.888581,55.2967047 C152.907497,55.2967047 154.767025,56.3579865 155.776484,57.870313 L157.609447,56.8355633 C156.201519,54.8191279 154.023214,53.3333333 150.888581,53.3333333 C145.78816,53.3333333 141.776892,57.0478196 141.776892,62.4868889 C141.776892,67.9259581 145.78816,71.6404444 150.888581,71.6404444 Z M173.920167,71.3220599 L165.871066,62.0093121 L173.25605,53.6251858 L170.493322,53.6251858 L162.656738,62.7522093 L162.656738,53.6251858 L160.451869,53.6251858 L160.451869,71.3220599 L162.656738,71.3220599 L162.656738,65.3788818 L164.436573,63.3624464 L171.157439,71.3220599 L173.920167,71.3220599 Z M188.026018,71.3220599 L188.026018,69.3586886 L178.622117,69.3586886 L178.622117,63.2563182 L187.840065,63.2563182 L187.840065,61.2929469 L178.622117,61.2929469 L178.622117,55.5885572 L188.026018,55.5885572 L188.026018,53.6251858 L176.417248,53.6251858 L176.417248,71.3220599 L188.026018,71.3220599 Z M204.389867,71.3220599 L201.786528,71.3220599 L197.297095,64.291068 L193.737426,64.291068 L193.737426,71.3220599 L191.532557,71.3220599 L191.532557,53.6251858 L198.651894,53.6251858 C201.892786,53.6251858 204.230479,55.6946853 204.230479,58.9581269 C204.230479,62.1419723 202.02561,63.8930873 199.608223,64.1053436 L204.389867,71.3220599 Z M198.386247,62.3542287 C200.484858,62.3542287 201.945916,60.9480303 201.945916,58.9581269 C201.945916,56.9416915 200.484858,55.5885572 198.386247,55.5885572 L193.737426,55.5885572 L193.737426,62.3542287 L198.386247,62.3542287 Z" id="TRACKER" fill="#000000"></path>
            <g id="logo-tx/symbol-black">
                <polygon id="Path" fill="#000000" points="0 80 81.3315217 80 81.3315217 0 0 0"></polygon>
                <path d="M49.9486957,71.4933333 L47.8808696,71.4933333 L47.8808696,49.6266667 L40.1086957,49.6266667 L40.1086957,47.7777778 L57.7208696,47.7777778 L57.7208696,49.6266667 L49.9486957,49.6266667 L49.9486957,71.4933333 Z M70.4308696,71.4933333 L68.2204348,71.4933333 L62.516087,63.92 L56.776087,71.4933333 L54.5656522,71.4933333 L61.3752174,62.6755556 L54.9578261,54.32 L57.1682609,54.32 L62.516087,61.3955556 L67.8282609,54.32 L70.0386957,54.32 L63.6213043,62.6755556 L70.4308696,71.4933333 Z" id="tx" fill="#22D9B9"></path>
            </g>
        </g>
    </g>
</svg>