<?xml version="1.0" encoding="UTF-8"?>
<svg width="300px" height="125px" viewBox="0 0 300 125" version="1.1" xmlns="http://www.w3.org/2000/svg" xmlns:xlink="http://www.w3.org/1999/xlink">
    <!-- Generator: Sketch 43.2 (39069) - http://www.bohemiancoding.com/sketch -->
    <title>logo-txtracker</title>
    <desc>Created with Sketch.</desc>
    <defs></defs>
    <g id="Page-1" stroke="none" stroke-width="1" fill="none" fill-rule="evenodd">
        <g id="txtracker">
            <g id="Group-2" transform="translate(0.000000, 26.000000)">
                <g id="logo-txtracker" fill-rule="nonzero" fill="#22D9B9">
                    <polygon id="Fill-1" points="0 72 73 72 73 -3.33066907e-16 0 -3.33066907e-16"></polygon>
                </g>
                <g id="Group" transform="translate(83.000000, 48.000000)" fill="#000000">
                    <path d="M7.00996829,16.1898539 L7.00996829,2.02970145 L12.0647754,2.02970145 L12.0647754,0.262667246 L0,0.262667246 L0,2.02970145 L5.03096363,2.02970145 L5.03096363,16.1898539 L7.00996829,16.1898539 Z M26.2277725,16.1898539 L23.8911164,16.1898539 L19.8615768,9.86196116 L16.6665573,9.86196116 L16.6665573,16.1898539 L14.6875526,16.1898539 L14.6875526,0.262667246 L21.0775917,0.262667246 C23.9864901,0.262667246 26.0847119,2.12521681 26.0847119,5.0623142 C26.0847119,7.92777507 24.1057073,9.50377855 21.9359552,9.69480928 L26.2277725,16.1898539 Z M20.8391574,8.1188058 C22.7227884,8.1188058 24.034177,6.85322725 24.034177,5.0623142 C24.034177,3.24752232 22.7227884,2.02970145 20.8391574,2.02970145 L16.6665573,2.02970145 L16.6665573,8.1188058 L20.8391574,8.1188058 Z M42.8227995,16.1898539 L40.5576737,16.1898539 L39.1509113,12.6319067 L31.2348927,12.6319067 L29.8281304,16.1898539 L27.5630046,16.1898539 L33.9768871,0.262667246 L36.4327603,0.262667246 L42.8227995,16.1898539 Z M38.578669,10.8887513 L35.192902,2.2923687 L31.8309784,10.8887513 L38.578669,10.8887513 Z M52.4317016,16.4764 C55.2452263,16.4764 57.1527006,15.1391849 58.4879327,13.3005142 L56.8188926,12.3931183 C55.9128423,13.7303333 54.2438022,14.7093658 52.4317016,14.7093658 C48.9505609,14.7093658 46.3039402,12.0110568 46.3039402,8.2382 C46.3039402,4.41758551 48.9505609,1.7670342 52.4317016,1.7670342 C54.2438022,1.7670342 55.9128423,2.72218783 56.8188926,4.08328174 L58.4640892,3.15200696 C57.2003875,1.33721507 55.2452263,0 52.4317016,0 C47.8537631,0 44.2534052,3.34303768 44.2534052,8.2382 C44.2534052,13.1333623 47.8537631,16.4764 52.4317016,16.4764 Z M73.103955,16.1898539 L65.8793958,7.80838087 L72.5078692,0.262667246 L70.0281526,0.262667246 L62.9943409,8.47698841 L62.9943409,0.262667246 L61.0153362,0.262667246 L61.0153362,16.1898539 L62.9943409,16.1898539 L62.9943409,10.8409936 L64.5918506,9.02620174 L70.6242383,16.1898539 L73.103955,16.1898539 Z M85.7648161,16.1898539 L85.7648161,14.4228197 L77.324242,14.4228197 L77.324242,8.93068638 L85.5979121,8.93068638 L85.5979121,7.16365217 L77.324242,7.16365217 L77.324242,2.02970145 L85.7648161,2.02970145 L85.7648161,0.262667246 L75.3452374,0.262667246 L75.3452374,16.1898539 L85.7648161,16.1898539 Z M100.452369,16.1898539 L98.1157126,16.1898539 L94.086173,9.86196116 L90.8911534,9.86196116 L90.8911534,16.1898539 L88.9121488,16.1898539 L88.9121488,0.262667246 L95.3021879,0.262667246 C98.2110863,0.262667246 100.309308,2.12521681 100.309308,5.0623142 C100.309308,7.92777507 98.3303034,9.50377855 96.1605514,9.69480928 L100.452369,16.1898539 Z M95.0637536,8.1188058 C96.9473845,8.1188058 98.2587732,6.85322725 98.2587732,5.0623142 C98.2587732,3.24752232 96.9473845,2.02970145 95.0637536,2.02970145 L90.8911534,2.02970145 L90.8911534,8.1188058 L95.0637536,8.1188058 Z" id="TRACKER"></path>
                </g>
                <path d="M44.832,64.344 L42.976,64.344 L42.976,44.664 L36,44.664 L36,43 L51.808,43 L51.808,44.664 L44.832,44.664 L44.832,64.344 Z M63.216,64.344 L61.232,64.344 L56.112,57.528 L50.96,64.344 L48.976,64.344 L55.088,56.408 L49.328,48.888 L51.312,48.888 L56.112,55.256 L60.88,48.888 L62.864,48.888 L57.104,56.408 L63.216,64.344 Z" id="Tx" fill="#FFFFFF"></path>
            </g>
        </g>
    </g>
</svg>